<svg width="18" height="18" viewBox="0 0 18 18" fill="none" xmlns="http://www.w3.org/2000/svg">
<g clip-path="url(#clip0_909_4)">
<path fill-rule="evenodd" clip-rule="evenodd" d="M2.57143 7.71429C2.57143 4.87396 4.87396 2.57143 7.71429 2.57143C10.5546 2.57143 12.8571 4.87396 12.8571 7.71429C12.8571 10.5546 10.5546 12.8571 7.71429 12.8571C4.87396 12.8571 2.57143 10.5546 2.57143 7.71429ZM7.71429 0C3.4538 0 0 3.4538 0 7.71429C0 11.9748 3.4538 15.4286 7.71429 15.4286C9.38029 15.4286 10.9229 14.9004 12.184 14.0025L15.8052 17.6237C16.3072 18.1257 17.1213 18.1257 17.6234 17.6237C18.1255 17.1216 18.1255 16.3075 17.6234 15.8054L14.0023 12.1843C14.9004 10.9232 15.4286 9.38042 15.4286 7.71429C15.4286 3.4538 11.9748 0 7.71429 0Z" fill="black"/>
</g>
<defs>
<clipPath id="clip0_909_4">
<rect width="18" height="18" fill="white"/>
</clipPath>
</defs>
</svg>
